<svg width="100" height="100" viewBox="0 0 100 100" fill="none" xmlns="http://www.w3.org/2000/svg">
<path fill-rule="evenodd" clip-rule="evenodd" d="M24 5C13.5066 5 5 13.5066 5 24V75C5 85.4934 13.5066 94 24 94H76C86.4934 94 95 85.4934 95 75V24C95 13.5066 86.4934 5 76 5H24ZM27 8C16.5066 8 8 16.5066 8 27V72C8 82.4934 16.5066 91 27 91H73C83.4934 91 92 82.4934 92 72V27C92 16.5066 83.4934 8 73 8H27Z" fill="black"/>
<path d="M75.0001 62.3002V69.8002C75.0029 70.4965 74.8603 71.1857 74.5814 71.8236C74.3024 72.4616 73.8933 73.0342 73.3803 73.5049C72.8672 73.9756 72.2615 74.334 71.6019 74.557C70.9424 74.7801 70.2435 74.8629 69.5501 74.8002C61.8572 73.9643 54.4676 71.3356 47.9751 67.1252C41.9346 63.2869 36.8134 58.1657 32.9751 52.1252C28.75 45.6033 26.1207 38.1777 25.3001 30.4502C25.2376 29.7589 25.3198 29.0621 25.5413 28.4043C25.7629 27.7465 26.119 27.142 26.587 26.6293C27.055 26.1166 27.6246 25.707 28.2596 25.4265C28.8945 25.1461 29.5809 25.0009 30.2751 25.0002H37.7751C38.9883 24.9883 40.1646 25.4179 41.0845 26.2091C42.0044 27.0002 42.6053 28.0989 42.7751 29.3002C43.0916 31.7004 43.6787 34.0571 44.5251 36.3252C44.8614 37.2201 44.9342 38.1925 44.7348 39.1274C44.5355 40.0624 44.0722 40.9205 43.4001 41.6002L40.2251 44.7752C43.784 51.0341 48.9662 56.2164 55.2251 59.7752L58.4001 56.6002C59.0798 55.9281 59.938 55.4649 60.8729 55.2655C61.8078 55.0661 62.7803 55.1389 63.6751 55.4752C65.9433 56.3216 68.2999 56.9087 70.7001 57.2252C71.9145 57.3966 73.0236 58.0083 73.8164 58.944C74.6092 59.8797 75.0305 61.0742 75.0001 62.3002Z" stroke="black" stroke-width="2" stroke-linecap="round" stroke-linejoin="round"/>
<path d="M55.125 25C60.2207 25.5369 64.9804 27.797 68.6172 31.4065C72.2539 35.0159 74.5497 39.7585 75.125 44.85" stroke="black" stroke-width="2" stroke-linecap="round" stroke-linejoin="round"/>
<path d="M55.125 35C57.5838 35.4848 59.84 36.6976 61.601 38.4808C63.3619 40.264 64.5461 42.5353 65 45" stroke="black" stroke-width="2" stroke-linecap="round" stroke-linejoin="round"/>
</svg>
