<svg width="100" height="100" viewBox="0 0 100 100" fill="none" xmlns="http://www.w3.org/2000/svg">
<path fill-rule="evenodd" clip-rule="evenodd" d="M24 5C13.5066 5 5 13.5066 5 24V75C5 85.4934 13.5066 94 24 94H76C86.4934 94 95 85.4934 95 75V24C95 13.5066 86.4934 5 76 5H24ZM27 8C16.5066 8 8 16.5066 8 27V72C8 82.4934 16.5066 91 27 91H73C83.4934 91 92 82.4934 92 72V27C92 16.5066 83.4934 8 73 8H27Z" fill="black"/>
<path d="M76.875 64.7083C76.875 63.0949 76.2341 61.5476 75.0932 60.4068C73.9524 59.2659 72.4051 58.625 70.7917 58.625H28.2083C26.5949 58.625 25.0476 59.2659 23.9068 60.4068C22.7659 61.5476 22.125 63.0949 22.125 64.7083V70.7917C22.125 72.4051 22.7659 73.9524 23.9068 75.0932C25.0476 76.2341 26.5949 76.875 28.2083 76.875H70.7917C72.4051 76.875 73.9524 76.2341 75.0932 75.0932C76.2341 73.9524 76.875 72.4051 76.875 70.7917V64.7083Z" stroke="black" stroke-width="2" stroke-linecap="round" stroke-linejoin="round"/>
<path d="M31.25 58.6248V52.5415" stroke="black" stroke-width="2" stroke-linecap="round" stroke-linejoin="round"/>
<path d="M49.5 58.625V40.375" stroke="black" stroke-width="2" stroke-linecap="round" stroke-linejoin="round"/>
<path d="M49.5 40.375C54.5396 40.375 58.625 36.2896 58.625 31.25C58.625 26.2104 54.5396 22.125 49.5 22.125C44.4604 22.125 40.375 26.2104 40.375 31.25C40.375 36.2896 44.4604 40.375 49.5 40.375Z" stroke="black" stroke-width="2" stroke-linecap="round" stroke-linejoin="round"/>
</svg>
