<svg width="100" height="100" viewBox="0 0 100 100" fill="none" xmlns="http://www.w3.org/2000/svg">
<path fill-rule="evenodd" clip-rule="evenodd" d="M24 5C13.5066 5 5 13.5066 5 24V75C5 85.4934 13.5066 94 24 94H76C86.4934 94 95 85.4934 95 75V24C95 13.5066 86.4934 5 76 5H24ZM27 8C16.5066 8 8 16.5066 8 27V72C8 82.4934 16.5066 91 27 91H73C83.4934 91 92 82.4934 92 72V27C92 16.5066 83.4934 8 73 8H27Z" fill="black"/>
<path d="M49.9999 79.1668C66.1082 79.1668 79.1666 66.1085 79.1666 50.0002C79.1666 33.8919 66.1082 20.8335 49.9999 20.8335C33.8916 20.8335 20.8333 33.8919 20.8333 50.0002C20.8333 66.1085 33.8916 79.1668 49.9999 79.1668Z" stroke="black" stroke-width="2" stroke-linecap="round" stroke-linejoin="round"/>
<path d="M38.3333 55.8335C38.3333 55.8335 42.7083 61.6668 49.9999 61.6668C57.2916 61.6668 61.6666 55.8335 61.6666 55.8335" stroke="black" stroke-width="2" stroke-linecap="round" stroke-linejoin="round"/>
<path d="M41.25 41.25H41.2792" stroke="black" stroke-width="2" stroke-linecap="round" stroke-linejoin="round"/>
<path d="M58.75 41.25H58.7792" stroke="black" stroke-width="2" stroke-linecap="round" stroke-linejoin="round"/>
</svg>
