<svg width="100" height="100" viewBox="0 0 100 100" fill="none" xmlns="http://www.w3.org/2000/svg">
<path fill-rule="evenodd" clip-rule="evenodd" d="M24 5C13.5066 5 5 13.5066 5 24V75C5 85.4934 13.5066 94 24 94H76C86.4934 94 95 85.4934 95 75V24C95 13.5066 86.4934 5 76 5H24ZM27 8C16.5066 8 8 16.5066 8 27V72C8 82.4934 16.5066 91 27 91H73C83.4934 91 92 82.4934 92 72V27C92 16.5066 83.4934 8 73 8H27Z" fill="black"/>
<path d="M65.6275 69.0317C62.9227 69.0317 60.4945 68.5278 58.343 67.5201C56.1914 66.4763 54.5009 65.0727 53.2714 63.3092C52.042 61.5096 51.4272 59.4582 51.4272 57.1548C51.4272 55.3913 51.6885 53.8977 52.211 52.674C52.7335 51.4143 53.4405 50.3886 54.3318 49.5968C55.2232 48.769 56.2221 48.1212 57.3287 47.6533C58.4352 47.1854 59.5571 46.8435 60.6943 46.6276L59.9566 50.1367C59.1882 49.7048 58.3891 49.2009 57.5592 48.6251C56.76 48.0132 56.0224 47.3114 55.3462 46.5196C54.6699 45.6918 54.1167 44.7921 53.6864 43.8203C53.2868 42.8126 53.087 41.6969 53.087 40.4732C53.087 38.4218 53.6403 36.6222 54.7468 35.0747C55.884 33.4911 57.3901 32.2494 59.2651 31.3496C61.1707 30.4499 63.2915 30 65.6275 30C67.9635 30 70.0689 30.4499 71.9439 31.3496C73.8188 32.2494 75.3095 33.4911 76.416 35.0747C77.5533 36.6222 78.1219 38.4218 78.1219 40.4732C78.1219 41.7689 77.9068 42.9206 77.4764 43.9283C77.0769 44.9001 76.539 45.7818 75.8628 46.5736C75.1866 47.3654 74.4489 48.0672 73.6497 48.6791C72.8506 49.2549 72.0515 49.7408 71.2523 50.1367L70.6529 46.6816C71.8209 46.8975 72.9582 47.2574 74.0647 47.7613C75.1712 48.2292 76.1548 48.895 77.0154 49.7588C77.876 50.5865 78.5676 51.6123 79.0901 52.8359C79.6126 54.0596 79.8739 55.4992 79.8739 57.1548C79.8739 59.4582 79.2592 61.5096 78.0297 63.3092C76.8002 65.0727 75.1097 66.4763 72.9582 67.5201C70.8066 68.5278 68.3631 69.0317 65.6275 69.0317ZM65.6275 60.4479C66.6418 60.4479 67.5178 60.304 68.2555 60.016C69.0239 59.6921 69.6079 59.2243 70.0075 58.6124C70.4378 58.0006 70.6529 57.2988 70.6529 56.507C70.6529 55.7872 70.4378 55.1393 70.0075 54.5635C69.6079 53.9517 69.0393 53.4838 68.3016 53.1599C67.5639 52.8 66.6726 52.62 65.6275 52.62C64.6132 52.62 63.7219 52.8 62.9534 53.1599C62.185 53.4838 61.5857 53.9517 61.1554 54.5635C60.7558 55.1393 60.556 55.7872 60.556 56.507C60.556 57.2628 60.7558 57.9466 61.1554 58.5584C61.5857 59.1703 62.1697 59.6381 62.9073 59.9621C63.6757 60.286 64.5825 60.4479 65.6275 60.4479ZM65.6275 44.3602C66.4574 44.3602 67.1797 44.2162 67.7944 43.9283C68.4399 43.6404 68.9317 43.2265 69.2698 42.6866C69.6079 42.1108 69.7769 41.463 69.7769 40.7432C69.7769 40.0953 69.5925 39.5375 69.2237 39.0696C68.8856 38.5657 68.4092 38.1878 67.7944 37.9359C67.1797 37.648 66.4574 37.504 65.6275 37.504C64.7976 37.504 64.06 37.63 63.4145 37.8819C62.769 38.1338 62.2772 38.5117 61.9391 39.0156C61.601 39.5195 61.432 40.0953 61.432 40.7432C61.432 41.499 61.601 42.1468 61.9391 42.6866C62.2772 43.2265 62.7537 43.6404 63.3684 43.9283C64.0139 44.2162 64.7669 44.3602 65.6275 44.3602Z" fill="black"/>
<path d="M28.1605 66.2246V35.5607L29.9125 41.5531L21.6137 45.926L20 35.6687L29.4054 30.54H37.7964V66.2246H28.1605ZM20.461 68.8699V58.9365H44.7122V68.8699H20.461Z" fill="black"/>
</svg>
