<svg width="100" height="100" viewBox="0 0 100 100" fill="none" xmlns="http://www.w3.org/2000/svg">
<path fill-rule="evenodd" clip-rule="evenodd" d="M24 5C13.5066 5 5 13.5066 5 24V75C5 85.4934 13.5066 94 24 94H76C86.4934 94 95 85.4934 95 75V24C95 13.5066 86.4934 5 76 5H24ZM27 8C16.5066 8 8 16.5066 8 27V72C8 82.4934 16.5066 91 27 91H73C83.4934 91 92 82.4934 92 72V27C92 16.5066 83.4934 8 73 8H27Z" fill="black"/>
<path d="M67.7499 37.3332V31.2498C67.7499 29.6364 67.109 28.0891 65.9682 26.9483C64.8273 25.8074 63.28 25.1665 61.6666 25.1665H25.1666C23.5532 25.1665 22.0059 25.8074 20.865 26.9483C19.7242 28.0891 19.0833 29.6364 19.0833 31.2498V52.5415C19.0833 54.1549 19.7242 55.7022 20.865 56.8431C22.0059 57.9839 23.5532 58.6248 25.1666 58.6248H49.4999" stroke="black" stroke-width="2" stroke-linecap="round" stroke-linejoin="round"/>
<path d="M43.4167 70.7916V58.7466V68.3278" stroke="black" stroke-width="2" stroke-linecap="round" stroke-linejoin="round"/>
<path d="M34.2917 70.7915H49.5001" stroke="black" stroke-width="2" stroke-linecap="round" stroke-linejoin="round"/>
<path d="M73.8334 49.5H67.7501C64.3903 49.5 61.6667 52.2236 61.6667 55.5833V73.8333C61.6667 77.1931 64.3903 79.9167 67.7501 79.9167H73.8334C77.1931 79.9167 79.9167 77.1931 79.9167 73.8333V55.5833C79.9167 52.2236 77.1931 49.5 73.8334 49.5Z" stroke="black" stroke-width="2" stroke-linecap="round" stroke-linejoin="round"/>
</svg>
