<svg width="100" height="100" viewBox="0 0 100 100" fill="none" xmlns="http://www.w3.org/2000/svg">
<path fill-rule="evenodd" clip-rule="evenodd" d="M24 5C13.5066 5 5 13.5066 5 24V75C5 85.4934 13.5066 94 24 94H76C86.4934 94 95 85.4934 95 75V24C95 13.5066 86.4934 5 76 5H24ZM27 8C16.5066 8 8 16.5066 8 27V72C8 82.4934 16.5066 91 27 91H73C83.4934 91 92 82.4934 92 72V27C92 16.5066 83.4934 8 73 8H27Z" fill="black"/>
<path d="M50.0002 79.1668C66.1085 79.1668 79.1668 66.1085 79.1668 50.0002C79.1668 33.8919 66.1085 20.8335 50.0002 20.8335C33.8919 20.8335 20.8335 33.8919 20.8335 50.0002C20.8335 66.1085 33.8919 79.1668 50.0002 79.1668Z" stroke="black" stroke-width="2" stroke-linecap="round" stroke-linejoin="round"/>
<path d="M61.6665 61.6665C61.6665 61.6665 57.2915 55.8332 49.9998 55.8332C42.7082 55.8332 38.3332 61.6665 38.3332 61.6665" stroke="black" stroke-width="2" stroke-linecap="round" stroke-linejoin="round"/>
<path d="M41.25 41.25H41.2792" stroke="black" stroke-width="2" stroke-linecap="round" stroke-linejoin="round"/>
<path d="M58.75 41.25H58.7792" stroke="black" stroke-width="2" stroke-linecap="round" stroke-linejoin="round"/>
</svg>
