<svg width="100" height="100" viewBox="0 0 100 100" fill="none" xmlns="http://www.w3.org/2000/svg">
<path fill-rule="evenodd" clip-rule="evenodd" d="M24 5C13.5066 5 5 13.5066 5 24V75C5 85.4934 13.5066 94 24 94H76C86.4934 94 95 85.4934 95 75V24C95 13.5066 86.4934 5 76 5H24ZM27 8C16.5066 8 8 16.5066 8 27V72C8 82.4934 16.5066 91 27 91H73C83.4934 91 92 82.4934 92 72V27C92 16.5066 83.4934 8 73 8H27Z" fill="black"/>
<path fill-rule="evenodd" clip-rule="evenodd" d="M39.4342 20L47.4516 22.1684L49.7471 33.4867L57.9401 35.7016L65.5367 27.0579L73.5541 29.2253L65.9581 37.8697L75 40.3141L71.6139 53.0681L66.6679 51.7308L64.7539 58.9397L69.6996 60.2769L66.3128 73.0302L51.4757 69.0186L48.8251 79L36.1865 75.5824L38.837 65.6017L24 61.5901L27.3861 48.8362L32.3321 50.1735L34.2461 42.9646L29.3004 41.6274L32.6872 28.8741L41.7293 31.3186L39.4342 20ZM40.5658 44.6734L41.3021 41.9009L32.7843 39.5978L34.6986 32.3895L45.4386 35.293L43.1437 23.9749L45.0173 24.4817L47.3129 35.8001L58.902 38.9332L66.4986 30.2895L68.3722 30.796L60.7761 39.4403L71.5163 42.3439L69.6024 49.5526L61.0848 47.2495L60.3484 50.022L63.9202 50.9881L62.0064 58.1965L58.4342 57.2309L57.6979 60.0034L66.2157 62.3065L64.3014 69.5148L49.4643 65.5032L46.8138 75.4845L39.6704 73.5529L42.3209 63.5721L27.4837 59.5604L29.3976 52.3517L37.9152 54.6548L38.6516 51.8823L35.0798 50.9162L36.9936 43.7078L40.5658 44.6734Z" fill="black"/>
</svg>
