<svg width="100" height="100" viewBox="0 0 100 100" fill="none" xmlns="http://www.w3.org/2000/svg">
<path fill-rule="evenodd" clip-rule="evenodd" d="M24 5C13.5066 5 5 13.5066 5 24V75C5 85.4934 13.5066 94 24 94H76C86.4934 94 95 85.4934 95 75V24C95 13.5066 86.4934 5 76 5H24ZM27 8C16.5066 8 8 16.5066 8 27V72C8 82.4934 16.5066 91 27 91H73C83.4934 91 92 82.4934 92 72V27C92 16.5066 83.4934 8 73 8H27Z" fill="black"/>
<path fill-rule="evenodd" clip-rule="evenodd" d="M50.1875 36.756C49.5792 36.2485 48.9716 35.9118 48.4431 35.8774C48.4357 35.877 48.4282 35.8766 48.4208 35.8762C48.4133 35.8758 48.4058 35.8754 48.3984 35.8751C48.2032 35.8657 48.0242 35.8677 47.8598 35.8837C47.3789 35.9305 47.0219 36.0966 46.7428 36.4455C46.2335 37.082 45.9832 38.3268 45.7124 40.5654C45.7123 40.5661 45.7122 40.5669 45.7121 40.5676C45.7096 40.5888 45.707 40.6101 45.7044 40.6315C45.703 40.643 45.7016 40.6547 45.7002 40.6663L45.6335 41.2222C45.6117 41.3987 45.5924 41.5707 45.5755 41.7382C45.5558 41.9344 45.5395 42.1245 45.5265 42.3087C45.5072 42.5834 45.4953 42.8448 45.4906 43.0937C45.4902 43.1162 45.4898 43.1386 45.4895 43.1609C45.4858 43.4315 45.4908 43.6869 45.5042 43.9279C45.5071 43.9813 45.5105 44.0339 45.5143 44.0859C45.515 44.0962 45.5158 44.1065 45.5166 44.1168C45.5237 44.2099 45.5321 44.3008 45.5419 44.3895C45.5421 44.3912 45.5423 44.393 45.5425 44.3948C45.5751 44.6898 45.6222 44.9603 45.6831 45.2082C45.6952 45.2572 45.7077 45.3053 45.7209 45.3525C45.7797 45.5644 45.8493 45.7588 45.9292 45.937C46.047 46.1995 46.1872 46.4268 46.3482 46.6229C46.8394 47.2212 47.525 47.5295 48.3627 47.6647L48.3886 47.6689C48.3958 47.6701 48.403 47.6713 48.4102 47.6724C48.4112 47.6726 48.4121 47.6727 48.413 47.6729C49.1108 47.7868 49.945 47.9235 50.8416 48.1159C51.8243 48.3267 52.882 48.6045 53.9174 48.9924C54.1508 49.0799 54.3831 49.1729 54.6131 49.2721C54.6286 49.2788 54.644 49.2855 54.6595 49.2922C57.3591 50.4672 59.7374 52.4889 59.9843 56.1629C59.9959 56.3363 60.0028 56.5134 60.0048 56.6942C60.0049 56.6994 60.0049 56.7045 60.005 56.7097C60.005 56.7113 60.005 56.713 60.005 56.7146C60.0114 57.2371 59.9631 57.7582 59.8635 58.2716C59.5146 60.0701 58.5356 61.7751 57.0664 63.1173C57.0613 63.122 57.0561 63.1267 57.051 63.1314C57.0172 63.1621 56.9832 63.1926 56.949 63.2229C56.2731 63.824 55.5327 64.3195 54.7497 64.7031C53.5765 65.2779 52.3075 65.6015 51.0157 65.6527C50.9933 65.6536 50.971 65.6544 50.9486 65.6551C50.3323 65.675 49.7111 65.6329 49.093 65.5265C49.0891 65.5258 49.0852 65.5251 49.0814 65.5245C49.0714 65.5227 49.0615 65.5209 49.0515 65.5192C48.3119 65.3871 47.6131 65.1954 46.9587 64.9638C46.7165 64.878 46.4803 64.7868 46.2505 64.6911C45.3065 64.2981 44.4681 63.8294 43.7479 63.3539C43.7369 65.2766 43.8141 66.7112 43.8266 66.9433C43.8269 66.9488 43.8272 66.9536 43.8274 66.9578C43.828 66.9689 43.8283 66.9751 43.8283 66.9762C43.834 67.0604 43.8343 67.1437 43.8297 67.2258C43.7751 68.1893 43.0319 68.9812 42.0796 69.0334C41.4317 69.0776 40.8414 68.7791 40.4707 68.2877C40.2482 67.9925 40.1048 67.6278 40.0759 67.226C40.0759 67.2259 40.0759 67.2261 40.0759 67.226C40.0759 67.2101 40.0733 67.1535 40.0689 67.0605C40.0678 67.0351 40.0665 67.007 40.065 66.9762C40.0402 66.4369 39.9821 65.083 39.9908 63.3326C39.9915 63.208 39.9924 63.0815 39.9938 62.953C39.9965 62.693 40.0007 62.4253 40.0068 62.1513C40.0068 62.1494 40.0069 62.1475 40.0069 62.1455C40.0199 61.5623 40.0412 60.9503 40.0737 60.3216C40.0744 60.3073 40.0751 60.2931 40.0759 60.2788C40.1115 59.6753 40.141 58.9669 40.165 58.25C40.1933 57.4086 40.214 56.5556 40.2287 55.8474C40.2328 55.6481 40.2364 55.4602 40.2396 55.2873C40.2419 55.1614 40.2439 55.0435 40.2458 54.9348C40.2518 54.578 40.2552 54.3211 40.2566 54.2116C40.2571 54.1757 40.2573 54.1556 40.2573 54.1532C40.2573 54.1509 40.2574 54.1485 40.2574 54.1462C40.2798 53.0766 41.1339 52.2129 42.1737 52.2376C43.1817 52.262 44.0033 53.1055 44.015 54.1532C44.0152 54.1726 44.0152 54.1921 44.0148 54.2116C44.0148 54.2133 44.0148 54.2157 44.0148 54.2187C44.0146 54.2761 44.0127 54.5709 44.0046 55.0048C44.0677 55.8404 44.2456 57.0707 44.7005 58.0508C44.786 58.235 44.8812 58.4103 44.9873 58.5726C45.0056 58.6006 45.0242 58.6281 45.0432 58.6553C45.2606 58.9666 45.532 59.2671 45.8267 59.5483C45.9179 59.6354 46.0114 59.7206 46.1061 59.8037C46.2 59.8861 46.2952 59.9664 46.3907 60.0443C46.3926 60.0459 46.3944 60.0474 46.3963 60.0489C46.6671 60.2697 46.9409 60.4718 47.1975 60.6499C47.2224 60.6672 47.2472 60.6843 47.2718 60.7011C47.5229 60.8731 47.755 61.0207 47.9483 61.1385C48.0511 61.2011 48.1428 61.2553 48.2207 61.3003C48.5223 61.4036 48.8323 61.5017 49.154 61.5808C49.3341 61.6251 49.5179 61.6634 49.7059 61.6933C49.7202 61.6958 49.7346 61.6981 49.7489 61.7004C49.7522 61.701 49.7555 61.7015 49.7588 61.702C50.1749 61.7685 50.5968 61.7855 51.0164 61.7557C52.2321 61.6692 53.4277 61.1888 54.4015 60.3758C54.4039 60.3738 54.4063 60.3718 54.4086 60.3698C54.4464 60.3382 54.4838 60.3061 54.5209 60.2735C55.5818 59.3297 56.2101 58.1162 56.2477 56.9183C56.2494 56.8647 56.2499 56.8111 56.2492 56.7575C56.2492 56.7551 56.2492 56.7527 56.2491 56.7504C56.2491 56.7484 56.2491 56.7464 56.2491 56.7444C56.2366 55.596 55.7977 54.7046 55.0082 53.9957C54.957 53.9497 54.9044 53.9045 54.8503 53.8601C54.5875 53.6442 54.2905 53.446 53.9616 53.2631C53.9288 53.2448 53.8957 53.2268 53.8623 53.2088C53.6836 53.1129 53.4958 53.0213 53.2995 52.9336C53.2968 52.9324 53.294 52.9312 53.2913 52.9299C53.2369 52.9057 53.1817 52.8817 53.126 52.8581C52.5887 52.6301 51.9907 52.4293 51.3387 52.249C51.3332 52.2475 51.3276 52.246 51.3221 52.2444C51.2886 52.2352 51.2549 52.226 51.2212 52.2169C50.2437 51.9529 49.1481 51.7333 47.9568 51.5362C47.9001 51.5268 47.8432 51.5175 47.7861 51.5082C47.7707 51.5057 47.7553 51.5032 47.74 51.5007C47.7376 51.5003 47.7352 51.4999 47.7328 51.4995C46.2343 51.2483 45.0153 50.6706 44.0784 49.7954C43.282 49.0513 42.6895 48.0921 42.3025 46.9357C42.3019 46.9339 42.3013 46.9321 42.3007 46.9304C41.7844 45.3844 41.635 43.4863 41.8561 41.2786C41.8727 41.1135 41.8913 40.9467 41.9119 40.7782C41.9125 40.7738 41.913 40.7693 41.9136 40.7649C41.9147 40.7557 41.9159 40.7464 41.917 40.7371L41.9735 40.1865L41.9789 40.1415C42.1557 38.6678 42.3921 36.6963 43.1895 35.0605C43.887 33.6294 45.0139 32.4554 46.9056 32.0966C46.9103 32.0957 46.915 32.0949 46.9198 32.094C47.4335 31.9978 48.0035 31.9617 48.6365 31.9967C48.645 31.9972 48.6536 31.9977 48.6621 31.9983C48.6737 31.9991 48.6853 31.9999 48.6969 32.0007C50.1733 32.109 51.5386 32.8758 52.7287 33.8964C52.8932 34.0374 53.0543 34.1833 53.2119 34.333C53.482 34.5894 53.7417 34.8569 53.9902 35.1301C54.0358 35.1802 54.0809 35.2304 54.1257 35.2808C54.1268 35.2229 54.128 35.165 54.1291 35.1072C54.1395 34.5629 54.147 34.026 54.1523 33.5515C54.1586 32.9901 54.1619 32.516 54.1635 32.2205C54.1644 32.0645 54.1648 31.9583 54.165 31.9152C54.165 31.9026 54.165 31.8954 54.165 31.894C54.165 30.8282 55.0069 29.9554 56.0438 29.9607C56.0615 29.961 56.0792 29.9616 56.0969 29.9624C56.6865 29.9889 57.2036 30.2888 57.5336 30.7415C57.7679 31.063 57.9078 31.4616 57.9122 31.894C57.9123 31.9011 57.9123 31.9081 57.9123 31.9152C57.9123 31.9189 57.9121 31.9264 57.9118 31.9379C57.9066 32.1376 57.8561 33.5082 57.7896 35.2716C57.7885 35.2991 57.7875 35.3267 57.7864 35.3545C57.7527 36.2479 57.715 37.2378 57.6771 38.2249C57.6765 38.2398 57.6759 38.2546 57.6754 38.2695C57.67 38.4099 57.6646 38.5501 57.6592 38.69C57.6312 39.4161 57.6034 40.1322 57.5773 40.7984C57.5479 41.5488 57.5206 42.2359 57.4976 42.8028C57.4966 42.8273 57.4956 42.8515 57.4946 42.8755C57.4937 42.8975 57.4928 42.9194 57.492 42.941C57.4918 42.9446 57.4917 42.9481 57.4915 42.9517C57.4807 43.2161 57.471 43.4511 57.4625 43.6501C57.4565 43.7925 57.4511 43.9165 57.4465 44.0197C57.4368 44.235 57.4304 44.3596 57.4281 44.3717C57.4271 44.3777 57.426 44.3836 57.425 44.3895C57.4247 44.3912 57.4244 44.393 57.424 44.3948C57.4005 44.5251 57.3645 44.6499 57.3177 44.7682C56.9909 45.5942 56.1339 46.1008 55.2498 45.9332C54.6578 45.8298 54.1886 45.4484 53.9256 44.9391C53.8969 44.8835 53.8707 44.8264 53.847 44.768C53.7986 44.6486 53.7609 44.5236 53.7349 44.3948C53.7349 44.3947 53.7349 44.3948 53.7349 44.3948C53.7345 44.393 53.7342 44.3912 53.7338 44.3895L53.6192 43.267C53.5897 42.9071 53.5442 42.5569 53.4683 42.1854C53.4664 42.1757 53.4644 42.166 53.4624 42.1563C53.4236 41.9696 53.3771 41.7773 53.3211 41.5755C53.3209 41.5746 53.3206 41.5737 53.3204 41.5728C53.307 41.5246 53.2931 41.4759 53.2786 41.4267C53.2029 41.1691 53.1118 40.8953 53.0018 40.5977C52.9777 40.5325 52.9527 40.4662 52.9268 40.3987C52.906 40.3448 52.8847 40.2901 52.8628 40.2345C52.856 40.2174 52.8492 40.2002 52.8423 40.183C52.4176 39.1406 51.8001 38.3996 51.2441 37.8249C51.0907 37.6664 50.9419 37.5204 50.8031 37.3843C50.6153 37.2001 50.4458 37.0338 50.3079 36.8785C50.3068 36.8773 50.3057 36.8761 50.3046 36.8748C50.2828 36.8501 50.2617 36.8257 50.2415 36.8015C50.2235 36.7862 50.2055 36.771 50.1875 36.756ZM68.1598 46.7632C69.8367 49.3756 70.9586 52.6277 70.9987 56.5901C71.0682 62.5136 68.3196 67.8125 64.2562 71.4124C60.5073 74.7414 55.685 76.6197 50.6632 76.6214C48.6222 78.5177 45.9198 79.7825 42.7582 79.9732C35.2842 80.4437 29.5868 74.6473 29.1096 68.0093L29.0815 67.6181V67.2258C29.0815 68.133 28.8885 63.6731 29.0965 59.7066L29.0984 59.6706L29.1005 59.6346C29.1557 58.6995 29.1977 57.3433 29.2257 56.1204C29.2455 55.2569 29.2558 54.5842 29.2601 54.2955C29.2621 54.1693 29.2629 54.1164 29.2629 54.1532V54.0574L29.2646 53.9615C29.3046 51.6796 29.9698 49.4481 31.1354 47.5087C30.6384 44.7457 30.691 41.9987 30.9906 39.5159L31.0457 38.9781L31.0569 38.8847C31.0656 38.8125 31.0752 38.7273 31.0862 38.6299C31.2465 37.2137 31.6969 33.2329 33.622 29.6419C34.7822 27.4776 36.6632 25.0473 39.6393 23.2843C42.6079 21.5257 45.8797 20.8977 49.0602 21.0435C51.0444 19.7515 53.439 18.9865 56.1003 19.0002L56.1659 19.0005L56.2314 19.0016C63.59 19.1269 68.9067 25.1899 68.9067 31.9152C68.9067 32.2936 68.7741 35.7638 68.6655 38.5901C68.6064 40.1295 68.5463 41.6713 68.4994 42.8388C68.476 43.4209 68.4556 43.9193 68.4399 44.2805C68.4323 44.4582 68.425 44.6198 68.4188 44.7472C68.4159 44.8066 68.4118 44.8875 68.407 44.9696C68.4048 45.0056 68.4001 45.0845 68.3929 45.1797C68.3895 45.224 68.3822 45.3189 68.3705 45.4378C68.3646 45.4974 68.3542 45.5983 68.3386 45.7231C68.3299 45.7931 68.3081 45.9648 68.2698 46.1921C68.2374 46.3839 68.2007 46.5743 68.1598 46.7632Z" fill="black"/>
</svg>
