<svg width="100" height="100" viewBox="0 0 100 100" fill="none" xmlns="http://www.w3.org/2000/svg">
<path fill-rule="evenodd" clip-rule="evenodd" d="M24 5C13.5066 5 5 13.5066 5 24V75C5 85.4934 13.5066 94 24 94H76C86.4934 94 95 85.4934 95 75V24C95 13.5066 86.4934 5 76 5H24ZM27 8C16.5066 8 8 16.5066 8 27V72C8 82.4934 16.5066 91 27 91H73C83.4934 91 92 82.4934 92 72V27C92 16.5066 83.4934 8 73 8H27Z" fill="black"/>
<path fill-rule="evenodd" clip-rule="evenodd" d="M57.1704 30.9921C57.1604 30.9929 57.1504 30.9938 57.1405 30.9946C55.4783 31.1379 53.7909 31.2477 52.0784 31.3239C52.0351 31.3258 51.9917 31.3277 51.9484 31.3296H36.5474C36.4232 31.3296 36.2162 31.3089 35.9264 31.2675C35.6366 31.2261 35.4296 31.2054 35.3054 31.2054C33.7322 31.4538 32.9456 32.0955 32.9456 33.1306C32.9456 33.5032 33.0698 34.0622 33.3182 34.8074C33.4383 35.0991 33.5335 35.3552 33.6038 35.5757C33.7032 35.8875 33.7529 36.1282 33.7529 36.2979C33.7741 36.4536 33.7954 36.6091 33.8166 36.7644C34.0438 38.4273 34.2709 40.0728 34.4981 41.701C34.6063 42.3002 34.7195 42.8391 34.8377 43.3179C34.8722 43.4574 34.907 43.5919 34.9424 43.7212C35.086 44.2472 35.2366 44.6885 35.3944 45.0451C35.3973 45.0519 35.4003 45.0586 35.4033 45.0653C35.7332 45.8035 36.0939 46.1725 36.4853 46.1725C37.4789 46.1725 37.9965 45.862 38.0379 45.241L38.1621 43.5642C38.1541 43.4011 38.1439 43.2275 38.1313 43.0433C38.0966 42.5344 38.0445 41.9453 37.9748 41.2758C37.9727 41.2562 37.9707 41.2365 37.9686 41.2167C37.9637 41.1705 37.9588 41.124 37.9538 41.077C37.9414 40.9604 37.9284 40.8415 37.9149 40.7202C37.778 39.4867 37.5886 38.0126 37.3467 36.2979C37.3451 36.2868 37.3436 36.2756 37.342 36.2644C37.3212 36.1171 37.3 35.968 37.2784 35.8172C37.2428 35.5682 37.2062 35.3144 37.1684 35.0558C37.6142 35.0246 38.0208 34.9962 38.3882 34.9709C39.9661 34.8619 40.8223 34.8074 40.9566 34.8074C41.2359 34.8173 41.5082 34.8265 41.7734 34.8351C42.0937 34.8454 42.4036 34.8548 42.7033 34.8632C42.8054 34.8661 42.9062 34.8688 43.0059 34.8715C43.2114 34.8769 43.4118 34.8819 43.6072 34.8864C44.5762 34.9089 45.4207 34.9198 46.1407 34.9192C46.5281 34.9189 46.8795 34.9152 47.1948 34.9082C47.5667 34.9 47.8885 34.8871 48.1603 34.8695L48.3466 35.0558C48.3172 35.5306 48.2901 36.0116 48.2654 36.4988C48.2552 36.6994 48.2454 36.9011 48.236 37.1039C48.2357 37.1108 48.2354 37.1177 48.2351 37.1246C48.2145 37.5694 48.1959 38.0192 48.1792 38.474C48.168 38.7796 48.1577 39.0875 48.1482 39.3976C48.1293 40.0146 48.1138 40.6407 48.1018 41.2758C48.0924 41.7715 48.0851 42.2727 48.0798 42.7794C48.0788 42.8795 48.0778 42.9799 48.077 43.0805C48.0735 43.4829 48.0713 43.8888 48.0704 44.2982C48.0703 44.3449 48.0702 44.3917 48.0701 44.4385C48.07 44.5196 48.07 44.6007 48.0699 44.682C48.0699 44.7319 48.0699 44.7819 48.07 44.8319C48.07 44.9238 48.0701 45.0158 48.0703 45.108C48.074 46.9669 48.104 48.895 48.1603 50.8925C48.2541 53.959 48.2771 56.5053 48.229 58.5313C48.2263 58.649 48.2232 58.7649 48.22 58.8791C48.205 59.4 48.1851 59.8845 48.1603 60.3323C48.1558 60.4173 48.1516 60.5037 48.1476 60.5916C48.1146 61.3172 48.0982 62.1417 48.0982 63.0649C48.1272 63.2975 48.1461 63.5402 48.1548 63.7932C48.1584 63.9005 48.1603 64.0097 48.1603 64.1207C48.1603 64.8246 47.5186 65.1765 46.2351 65.1765C46.1826 65.1765 46.1306 65.1767 46.0789 65.1771C45.9104 65.1785 45.7465 65.1821 45.5872 65.1879C45.5858 65.188 45.5845 65.188 45.5832 65.1881C44.069 65.2441 42.969 65.5026 42.2831 65.9636C42.0353 66.1302 41.8415 66.3233 41.7018 66.5428C41.3706 67.081 41.3706 67.5986 41.7018 68.0954C41.9754 68.5059 42.5129 68.7845 43.3141 68.9312C43.9279 69.0436 44.6964 69.0785 45.6197 69.0361C45.6606 69.0343 45.7018 69.0322 45.7434 69.03C45.7623 69.029 45.7814 69.028 45.8004 69.0269C45.8728 69.0229 45.9448 69.0187 46.0165 69.0145C46.0898 69.0102 46.1626 69.0059 46.2351 69.0015C47.1968 68.9435 48.0921 68.8772 48.9212 68.8026C49.7926 68.7242 50.5908 68.6367 51.3158 68.54C51.3404 68.5367 51.365 68.5334 51.3895 68.5301C51.6898 68.519 51.9796 68.5124 52.2589 68.5102C53.0195 68.5043 53.7026 68.5317 54.3082 68.5922C55.0213 68.6571 55.6216 68.6768 56.1092 68.6514C56.3046 68.6412 56.482 68.6237 56.6412 68.599C56.8457 68.5673 57.0202 68.5237 57.1649 68.468C57.1811 68.461 57.1972 68.454 57.2132 68.4468C58.0504 68.0713 58.469 67.4366 58.469 66.5428C58.469 65.9077 58.3338 65.422 58.0634 65.0858C57.6816 64.611 57.0301 64.4342 56.1092 64.5554H52.2589C52.178 64.4422 52.1129 64.2972 52.0636 64.1207C51.9868 63.8456 51.9484 63.4937 51.9484 63.0649V58.5313C51.9484 55.4418 51.9395 52.8602 51.9217 50.7865C51.9217 50.7834 51.9216 50.7804 51.9216 50.7773C51.8924 47.3819 51.8392 45.3502 51.7621 44.682C51.7621 43.3821 51.784 42.2467 51.8279 41.2758C51.8579 40.6131 51.898 40.0272 51.9484 39.5178C51.9484 39.5178 51.9484 39.5178 51.9484 39.5178C51.9676 39.3236 51.9883 39.1404 52.0105 38.9684L51.9484 38.4095L51.7621 36.7327C51.7042 36.1824 51.6868 35.6929 51.7099 35.2642C51.7198 35.08 51.7372 34.9071 51.7621 34.7453C51.8241 34.7393 51.8862 34.7333 51.9484 34.7273C51.9974 34.7225 52.0464 34.7178 52.0955 34.7131C52.3496 34.6889 52.6049 34.665 52.8615 34.6417C54.0675 34.5319 55.3015 34.4323 56.5634 34.3428C56.8578 34.3219 57.1537 34.3016 57.4511 34.2818C57.7534 34.2617 58.0573 34.2422 58.3628 34.2233C58.872 34.1917 59.3855 34.1617 59.9033 34.1333C59.9583 34.1303 60.0132 34.1273 60.0683 34.1243C60.9106 34.0787 61.7644 34.0373 62.6297 34.0001C62.7125 34.0829 62.7746 34.1243 62.816 34.1243C62.816 34.3464 62.8107 34.648 62.8001 35.0291C62.7965 35.1602 62.7922 35.3008 62.7873 35.4507C62.776 35.7972 62.7613 36.1939 62.7433 36.6409C62.7393 36.7414 62.735 36.8444 62.7306 36.95C62.7303 36.9577 62.73 36.9655 62.7297 36.9732C62.7182 37.2485 62.7056 37.541 62.6918 37.8505C62.6585 38.4843 62.6352 39.0643 62.622 39.5906C62.6217 39.6025 62.6214 39.6144 62.6211 39.6262C62.6206 39.6475 62.6201 39.6688 62.6196 39.6899C62.6137 39.9462 62.6103 40.1895 62.6093 40.4197C62.6088 40.5398 62.609 40.6564 62.6098 40.7695C62.6119 41.0626 62.6186 41.3317 62.6297 41.5768C62.6818 41.6735 62.7439 41.7615 62.816 41.8409C62.864 41.8937 62.9164 41.9426 62.9733 41.9877C63.3066 42.252 63.7924 42.3842 64.4306 42.3842C65.5275 42.3842 66.1971 42.0573 66.4392 41.4036C66.5078 41.2185 66.5421 41.0071 66.5421 40.7695C66.5421 40.5411 66.5126 40.1948 66.4535 39.7304C66.4454 39.6664 66.4367 39.6002 66.4275 39.5317C66.4065 39.3762 66.3826 39.2092 66.3558 39.0305C66.3345 38.9103 66.3157 38.7936 66.2993 38.6806C66.2661 38.451 66.2427 38.2364 66.2294 38.0367C66.2288 38.027 66.2281 38.0173 66.2275 38.0077C66.211 37.7421 66.2123 37.5034 66.2316 37.2916C66.2451 37.1533 66.2591 37.0158 66.2737 36.8791C66.3761 35.9202 66.5055 35.002 66.662 34.1243C66.7355 33.7121 66.815 33.309 66.9004 32.9147C66.9254 32.7996 66.9508 32.6853 66.9768 32.5717C67.1838 31.7022 66.9768 31.0398 66.3558 30.5843C66.2974 30.5377 66.238 30.4936 66.1775 30.452C65.5937 30.0512 64.9079 29.8883 64.1201 29.9633C63.6233 30.0875 63.2507 30.2117 63.0023 30.3359C62.9403 30.3446 62.8782 30.3532 62.816 30.3617C62.7026 30.3774 62.589 30.3928 62.4752 30.4081C61.4697 30.5434 60.4544 30.6655 59.4292 30.7745C59.3574 30.7821 59.2857 30.7897 59.2138 30.7972C58.8935 30.8306 58.5721 30.8628 58.2498 30.8937C57.8912 30.9281 57.5314 30.9609 57.1704 30.9921ZM51.7279 21.3834C54.7956 21.2445 57.754 20.9897 60.6052 20.6224C61.0342 20.4876 61.4127 20.3879 61.708 20.3141L62.4331 20.1328L63.1772 20.0619C66.288 19.7656 69.6071 20.5148 72.4213 22.7014C74.17 24.0365 75.6907 25.9632 76.4696 28.456C77.2305 30.8908 77.0574 33.1356 76.6665 34.8135C76.4816 35.6272 76.3222 36.5558 76.1994 37.6093C76.3191 38.4109 76.4877 39.6339 76.4877 40.7695C76.4877 43.6628 75.4037 47.3209 72.0557 49.8813C69.2124 52.0557 66.1215 52.3304 64.4306 52.3304C63.7344 52.3304 62.8515 52.2692 61.8783 52.0789C61.8852 53.2104 61.8894 54.4321 61.8918 55.7355C62.6963 56.1232 63.5033 56.6305 64.2853 57.289C67.8419 60.2842 68.4146 64.3062 68.4146 66.5428C68.4146 68.6306 67.8941 71.046 66.3771 73.2855C64.8775 75.4994 62.8798 76.8398 61.0826 77.61L60.9102 77.6839L60.7351 77.7512C57.816 78.8741 54.7472 78.6193 53.4078 78.4976L53.3632 78.4935L53.3186 78.489C53.1114 78.4683 52.7405 78.4484 52.1713 78.4582C50.4371 78.6745 48.4887 78.8369 46.3625 78.9572L46.3573 78.9575L46.3521 78.9578C44.791 79.0446 42.8546 79.0315 40.8949 78.5861C39.0788 78.1733 35.705 77.0304 33.4266 73.6125C32.3438 71.9883 31.5078 69.8458 31.5078 67.3346C31.5078 64.8663 32.3149 62.8196 33.2315 61.33L33.2708 61.2662L33.3111 61.2029C34.7268 58.978 36.6134 57.6296 38.3066 56.8092C38.3079 56.549 38.3082 56.2791 38.3074 55.9993C37.5742 56.0988 36.9468 56.1187 36.4853 56.1187C32.8201 56.1187 30.2151 54.2946 28.7877 52.8263C27.4587 51.4593 26.7124 49.9993 26.3102 49.0942C25.4896 47.2477 25.0227 45.1959 24.7108 43.4683L24.6754 43.2725L24.6479 43.0755C24.4257 41.4823 24.2034 39.8729 23.9812 38.2473L23.883 37.9527C23.5856 37.0606 23 35.2101 23 33.1306C23 29.6927 24.488 26.4183 27.2487 24.166C29.5708 22.2716 32.1295 21.6375 33.7543 21.3809L34.5251 21.2592H35.3054C36.0048 21.2592 36.6602 21.3311 37.0588 21.3834H51.7279ZM24.1591 38.6886C24.1591 38.6886 24.1584 38.6867 24.1571 38.6831C24.1585 38.6868 24.1591 38.6887 24.1591 38.6886Z" fill="black"/>
</svg>
