<svg width="100" height="100" viewBox="0 0 100 100" fill="none" xmlns="http://www.w3.org/2000/svg">
<path fill-rule="evenodd" clip-rule="evenodd" d="M24 5C13.5066 5 5 13.5066 5 24V75C5 85.4934 13.5066 94 24 94H76C86.4934 94 95 85.4934 95 75V24C95 13.5066 86.4934 5 76 5H24ZM27 8C16.5066 8 8 16.5066 8 27V72C8 82.4934 16.5066 91 27 91H73C83.4934 91 92 82.4934 92 72V27C92 16.5066 83.4934 8 73 8H27Z" fill="black"/>
<path d="M37.3335 55.5835C47.4127 55.5835 55.5835 47.4127 55.5835 37.3335C55.5835 27.2543 47.4127 19.0835 37.3335 19.0835C27.2543 19.0835 19.0835 27.2543 19.0835 37.3335C19.0835 47.4127 27.2543 55.5835 37.3335 55.5835Z" stroke="black" stroke-width="2" stroke-linecap="round" stroke-linejoin="round"/>
<path d="M68.0236 44.542C70.8989 45.614 73.4575 47.3936 75.4628 49.7165C77.468 52.0393 78.8552 54.8303 79.496 57.8312C80.1368 60.8322 80.0105 63.9464 79.1289 66.8856C78.2472 69.8249 76.6387 72.4944 74.4519 74.6472C72.2652 76.8001 69.571 78.3668 66.6183 79.2025C63.6656 80.0381 60.5499 80.1158 57.5593 79.4283C54.5687 78.7407 51.7997 77.3102 49.5085 75.2689C47.2172 73.2277 45.4777 70.6416 44.4507 67.7499" stroke="black" stroke-width="2" stroke-linecap="round" stroke-linejoin="round"/>
<path d="M28 45.0001H32.5C32.6326 45.0001 32.7598 44.9474 32.8536 44.8536C32.9473 44.7599 33 44.6327 33 44.5001V44.2181C32.9991 44.1303 32.9759 44.0442 32.9327 43.9678C32.8895 43.8914 32.8277 43.8272 32.753 43.7811C31.2814 42.8594 30.1496 41.484 29.5285 39.8625C28.9074 38.241 28.8307 36.4614 29.3101 34.7924C29.7895 33.1235 30.7988 31.6559 32.1857 30.6111C33.5727 29.5663 35.2619 29.0012 36.9983 29.001C38.7347 29.0008 40.424 29.5655 41.8112 30.61C43.1983 31.6544 44.208 33.1218 44.6878 34.7906C45.1675 36.4595 45.0913 38.2391 44.4706 39.8607C43.8499 41.4824 42.7184 42.8581 41.247 43.7801C41.1722 43.8262 41.1102 43.8906 41.067 43.9672C41.0238 44.0438 41.0008 44.1301 41 44.2181V44.5001C41 44.6327 41.0527 44.7599 41.1464 44.8536C41.2402 44.9474 41.3674 45.0001 41.5 45.0001H46" stroke="black" stroke-width="2" stroke-linecap="round" stroke-linejoin="round"/>
<g clip-path="url(#clip0_104_536)">
<path d="M49.9794 60.2926L53.1614 63.4745C53.2552 63.5683 53.3823 63.621 53.5149 63.621C53.6475 63.621 53.7747 63.5683 53.8685 63.4745L54.0679 63.2751C54.1293 63.2124 54.1738 63.1352 54.1973 63.0506C54.2208 62.966 54.2225 62.8769 54.2022 62.7915C53.8134 61.0992 53.9856 59.3263 54.693 57.7405C55.4004 56.1548 56.6046 54.8422 58.1237 54.0011C59.6427 53.1599 61.3942 52.8358 63.1137 53.0778C64.8332 53.3197 66.4272 54.1145 67.6552 55.3422C68.8832 56.5699 69.6784 58.1638 69.9207 59.8832C70.1631 61.6026 69.8394 63.3542 68.9986 64.8735C68.1578 66.3927 66.8456 67.5972 65.26 68.305C63.6743 69.0128 61.9015 69.1854 60.2091 68.7969C60.1236 68.7767 60.0342 68.7784 59.9495 68.802C59.8648 68.8256 59.7875 68.8704 59.7248 68.932L59.5253 69.1314C59.4316 69.2252 59.3789 69.3523 59.3789 69.485C59.3789 69.6176 59.4316 69.7447 59.5253 69.8385L62.7073 73.0205" stroke="black" stroke-width="2" stroke-linecap="round" stroke-linejoin="round"/>
</g>
<defs>
<clipPath id="clip0_104_536">
<rect width="24" height="24" fill="white" transform="translate(62 44.0293) rotate(45)"/>
</clipPath>
</defs>
</svg>
