<svg width="100" height="100" viewBox="0 0 100 100" fill="none" xmlns="http://www.w3.org/2000/svg">
<path fill-rule="evenodd" clip-rule="evenodd" d="M24 5C13.5066 5 5 13.5066 5 24V75C5 85.4934 13.5066 94 24 94H76C86.4934 94 95 85.4934 95 75V24C95 13.5066 86.4934 5 76 5H24ZM27 8C16.5066 8 8 16.5066 8 27V72C8 82.4934 16.5066 91 27 91H73C83.4934 91 92 82.4934 92 72V27C92 16.5066 83.4934 8 73 8H27Z" fill="black"/>
<path d="M15.9595 50.6744C15.6782 49.9166 15.6782 49.0831 15.9595 48.3254C18.699 41.6829 23.3491 36.0034 29.3203 32.0069C35.2916 28.0104 42.315 25.877 49.5002 25.877C56.6855 25.877 63.7089 28.0104 69.6801 32.0069C75.6514 36.0034 80.3015 41.6829 83.041 48.3254C83.3223 49.0831 83.3223 49.9166 83.041 50.6744C80.3015 57.3169 75.6514 62.9964 69.6801 66.9928C63.7089 70.9893 56.6855 73.1228 49.5002 73.1228C42.315 73.1228 35.2916 70.9893 29.3203 66.9928C23.3491 62.9964 18.699 57.3169 15.9595 50.6744Z" stroke="black" stroke-width="3" stroke-linecap="round" stroke-linejoin="round"/>
<path d="M49.5 59.625C55.0919 59.625 59.625 55.0919 59.625 49.5C59.625 43.9081 55.0919 39.375 49.5 39.375C43.9081 39.375 39.375 43.9081 39.375 49.5C39.375 55.0919 43.9081 59.625 49.5 59.625Z" stroke="black" stroke-width="3" stroke-linecap="round" stroke-linejoin="round"/>
</svg>
