<svg width="100" height="100" viewBox="0 0 100 100" fill="none" xmlns="http://www.w3.org/2000/svg">
<path fill-rule="evenodd" clip-rule="evenodd" d="M24 5C13.5066 5 5 13.5066 5 24V75C5 85.4934 13.5066 94 24 94H76C86.4934 94 95 85.4934 95 75V24C95 13.5066 86.4934 5 76 5H24ZM27 8C16.5066 8 8 16.5066 8 27V72C8 82.4934 16.5066 91 27 91H73C83.4934 91 92 82.4934 92 72V27C92 16.5066 83.4934 8 73 8H27Z" fill="black"/>
<path d="M22.125 46.4585H31.25C32.8634 46.4585 34.4107 47.0994 35.5516 48.2403C36.6924 49.3811 37.3333 50.9284 37.3333 52.5418V61.6668C37.3333 63.2802 36.6924 64.8275 35.5516 65.9684C34.4107 67.1092 32.8634 67.7502 31.25 67.7502H28.2083C26.5949 67.7502 25.0476 67.1092 23.9068 65.9684C22.7659 64.8275 22.125 63.2802 22.125 61.6668V46.4585ZM22.125 46.4585C22.125 42.8636 22.8331 39.3038 24.2088 35.9825C25.5845 32.6612 27.6009 29.6435 30.143 27.1014C32.685 24.5594 35.7028 22.543 39.024 21.1673C42.3453 19.7916 45.9051 19.0835 49.5 19.0835C53.0949 19.0835 56.6547 19.7916 59.976 21.1673C63.2972 22.543 66.315 24.5594 68.857 27.1014C71.3991 29.6435 73.4155 32.6612 74.7912 35.9825C76.1669 39.3038 76.875 42.8636 76.875 46.4585M76.875 46.4585V61.6668C76.875 63.2802 76.2341 64.8275 75.0932 65.9684C73.9524 67.1092 72.4051 67.7502 70.7917 67.7502H67.75C66.1366 67.7502 64.5893 67.1092 63.4484 65.9684C62.3076 64.8275 61.6667 63.2802 61.6667 61.6668V52.5418C61.6667 50.9284 62.3076 49.3811 63.4484 48.2403C64.5893 47.0994 66.1366 46.4585 67.75 46.4585H76.875Z" stroke="black" stroke-width="2" stroke-linecap="round" stroke-linejoin="round"/>
<path d="M76.875 61.6665V67.7498C76.875 70.9766 75.5932 74.0713 73.3115 76.353C71.0298 78.6347 67.9351 79.9165 64.7083 79.9165H49.5" stroke="black" stroke-width="2" stroke-linecap="round" stroke-linejoin="round"/>
</svg>
