<svg width="100" height="100" viewBox="0 0 100 100" fill="none" xmlns="http://www.w3.org/2000/svg">
<path fill-rule="evenodd" clip-rule="evenodd" d="M24 5C13.5066 5 5 13.5066 5 24V75C5 85.4934 13.5066 94 24 94H76C86.4934 94 95 85.4934 95 75V24C95 13.5066 86.4934 5 76 5H24ZM27 8C16.5066 8 8 16.5066 8 27V72C8 82.4934 16.5066 91 27 91H73C83.4934 91 92 82.4934 92 72V27C92 16.5066 83.4934 8 73 8H27Z" fill="black"/>
<path d="M71.5834 64.2461H27.4167" stroke="black" stroke-width="2" stroke-linecap="round" stroke-linejoin="round"/>
<path d="M35.0355 49.0308L27.4167 64.2463V77.4963C27.4167 78.6676 27.8821 79.791 28.7104 80.6193C29.5386 81.4476 30.662 81.9129 31.8334 81.9129H67.1668C68.3381 81.9129 69.4615 81.4476 70.2898 80.6193C71.1181 79.791 71.5834 78.6676 71.5834 77.4963V64.2463L63.9647 49.0308C63.599 48.295 63.0353 47.6757 62.337 47.2427C61.6387 46.8097 60.8334 46.58 60.0118 46.5796H38.9884C38.1667 46.58 37.3615 46.8097 36.6631 47.2427C35.9648 47.6757 35.4011 48.295 35.0355 49.0308Z" stroke="black" stroke-width="2" stroke-linecap="round" stroke-linejoin="round"/>
<path d="M36.25 73.0796H36.2721" stroke="black" stroke-width="2" stroke-linecap="round" stroke-linejoin="round"/>
<path d="M45.0833 73.0796H45.1054" stroke="black" stroke-width="2" stroke-linecap="round" stroke-linejoin="round"/>
<path d="M57.2851 37.4463H44.5591C42.6155 37.4458 40.7104 36.9049 39.0566 35.8839C37.4028 34.863 36.0655 33.4023 35.1941 31.6651C34.3226 29.9279 33.9514 27.9826 34.122 26.0465C34.2925 24.1105 34.998 22.26 36.1597 20.7019C37.3214 19.1437 38.8935 17.9393 40.7003 17.2232C42.5071 16.5071 44.4774 16.3075 46.3911 16.6467C48.3048 16.986 50.0865 17.8507 51.537 19.1442C52.9876 20.4378 54.0498 22.1092 54.6051 23.9717H57.2851C59.0719 23.9717 60.7856 24.6815 62.0491 25.945C63.3125 27.2085 64.0224 28.9222 64.0224 30.709C64.0224 32.4958 63.3125 34.2095 62.0491 35.473C60.7856 36.7365 59.0719 37.4463 57.2851 37.4463Z" stroke="black" stroke-width="2" stroke-linecap="round" stroke-linejoin="round"/>
<path d="M45.4578 52.1187L49.051 55.7119L52.6442 52.1187" stroke="black" stroke-width="2" stroke-linecap="round" stroke-linejoin="round"/>
<path d="M49.0508 37.7456V55.7117" stroke="black" stroke-width="2" stroke-linecap="round" stroke-linejoin="round"/>
</svg>
