<svg width="100" height="100" viewBox="0 0 100 100" fill="none" xmlns="http://www.w3.org/2000/svg">
<path fill-rule="evenodd" clip-rule="evenodd" d="M24 5C13.5066 5 5 13.5066 5 24V75C5 85.4934 13.5066 94 24 94H76C86.4934 94 95 85.4934 95 75V24C95 13.5066 86.4934 5 76 5H24ZM27 8C16.5066 8 8 16.5066 8 27V72C8 82.4934 16.5066 91 27 91H73C83.4934 91 92 82.4934 92 72V27C92 16.5066 83.4934 8 73 8H27Z" fill="black"/>
<path d="M47 65L53 71C53.5909 71.5909 54.2925 72.0597 55.0646 72.3795C55.8367 72.6994 56.6643 72.864 57.5 72.864C58.3357 72.864 59.1633 72.6994 59.9354 72.3795C60.7075 72.0597 61.4091 71.5909 62 71C62.5909 70.4091 63.0597 69.7075 63.3795 68.9354C63.6994 68.1633 63.864 67.3357 63.864 66.5C63.864 65.6643 63.6994 64.8367 63.3795 64.0646C63.0597 63.2925 62.5909 62.5909 62 62" stroke="black" stroke-width="2" stroke-linecap="round" stroke-linejoin="round"/>
<path d="M55.9999 56L63.4999 63.5C64.6934 64.6935 66.3121 65.364 67.9999 65.364C69.6878 65.364 71.3065 64.6935 72.4999 63.5C73.6934 62.3066 74.3639 60.6879 74.3639 59C74.3639 57.3122 73.6934 55.6935 72.4999 54.5L60.8599 42.86C59.1724 41.1746 56.885 40.228 54.4999 40.228C52.1149 40.228 49.8275 41.1746 48.1399 42.86L45.4999 45.5C44.3065 46.6935 42.6878 47.364 40.9999 47.364C39.3121 47.364 37.6934 46.6935 36.4999 45.5C35.3065 44.3066 34.636 42.6879 34.636 41C34.636 39.3122 35.3065 37.6935 36.4999 36.5L44.9299 28.07C47.6667 25.3405 51.2356 23.6017 55.0719 23.129C58.9081 22.6562 62.7924 23.4765 66.1099 25.46L67.5199 26.3C68.7973 27.071 70.3161 27.3384 71.7799 27.05L76.9999 26" stroke="black" stroke-width="2" stroke-linecap="round" stroke-linejoin="round"/>
<path d="M77 23L80 56H74" stroke="black" stroke-width="2" stroke-linecap="round" stroke-linejoin="round"/>
<path d="M23 23L20 56L39.5 75.5C40.6935 76.6935 42.3122 77.364 44 77.364C45.6878 77.364 47.3065 76.6935 48.5 75.5C49.6935 74.3065 50.364 72.6878 50.364 71C50.364 69.3122 49.6935 67.6935 48.5 66.5" stroke="black" stroke-width="2" stroke-linecap="round" stroke-linejoin="round"/>
<path d="M23 26H47" stroke="black" stroke-width="2" stroke-linecap="round" stroke-linejoin="round"/>
</svg>
