<svg width="100" height="100" viewBox="0 0 100 100" fill="none" xmlns="http://www.w3.org/2000/svg">
<path fill-rule="evenodd" clip-rule="evenodd" d="M24 5C13.5066 5 5 13.5066 5 24V75C5 85.4934 13.5066 94 24 94H76C86.4934 94 95 85.4934 95 75V24C95 13.5066 86.4934 5 76 5H24ZM27 8C16.5066 8 8 16.5066 8 27V72C8 82.4934 16.5066 91 27 91H73C83.4934 91 92 82.4934 92 72V27C92 16.5066 83.4934 8 73 8H27Z" fill="black"/>
<path fill-rule="evenodd" clip-rule="evenodd" d="M76.7208 38.9592C76.76 38.7409 76.7914 38.5226 76.8149 38.2964C76.9562 37.0488 76.8777 35.692 76.5089 33.1266C76.5078 33.1198 76.5067 33.1131 76.5055 33.1066C76.499 33.0685 76.4933 33.0352 76.4933 33.0019C76.0539 30.2649 74.6417 27.7307 72.2723 25.4616C70.8365 24.0424 69.2909 22.9117 67.6825 22.1008C65.6662 21.0637 65.1484 20.822 64.458 20.5881C64.2618 20.5257 64.0578 20.4633 63.8617 20.4087C59.9937 19.4106 56.8398 18.818 54.2193 18.5919C54.1762 18.588 54.131 18.5841 54.0859 18.5802C54.0408 18.5763 53.9957 18.5724 53.9526 18.5685C52.8934 18.5139 51.6773 18.5061 50.1474 18.5607H45.1889C45.032 18.5607 44.8672 18.5607 44.7103 18.5685L39.7989 18.8414C39.7126 18.8492 39.6185 18.857 39.5243 18.8648C35.7505 19.2001 32.7613 20.245 30.3919 22.0618C30.2978 22.132 30.2115 22.2022 30.1173 22.2801C27.897 24.1282 26.626 26.8729 26.626 29.8126C26.626 30.491 26.6731 31.2006 26.7829 31.918C27.0183 33.5711 27.7401 35.1228 28.8463 36.3704C30.6744 38.429 33.083 39.7624 35.7819 40.2458C35.8133 40.893 35.8368 41.4857 35.8525 42.0159C35.8996 43.1387 35.9388 43.9887 35.9702 44.5501C35.9781 44.7606 35.9937 44.9712 36.0094 45.1739V49.4626C36.0094 50.3125 36.135 51.0299 36.284 51.6459V54.8975C36.237 56.9405 36.3154 58.4766 36.5429 59.771V59.7788C35.6799 59.9582 34.864 60.1921 34.1108 60.4884C32.3612 61.1434 30.0938 62.5548 28.4933 65.5959C26.1945 69.7208 27.1909 74.7035 30.9646 77.7289C33.2007 79.5692 36.1036 80.4971 39.6028 80.4971C40.9836 80.4971 42.8038 80.3255 45.5106 79.9279C47.8643 79.5848 48.8999 79.4912 49.3001 79.4678C49.7551 79.4522 50.4691 79.3898 52.7757 79.1325C53.2151 79.0857 53.474 79.0779 53.6073 79.0779H53.6544C55.8826 79.3196 57.9931 79.2183 59.931 78.7894C64.9052 77.6899 68.2474 73.4948 68.2474 68.3562C68.2474 65.1514 67.0078 62.9291 65.9173 61.5957C64.7169 60.1141 62.1905 57.8528 57.7891 57.6891C57.7734 56.7612 57.7499 55.9112 57.7263 55.1471C57.742 55.1471 57.7577 55.1471 57.7734 55.1393C62.2768 54.3907 65.7682 53.1977 68.4122 51.5134C72.8058 48.7296 75.6773 44.3942 76.7208 38.9592ZM63.7713 44.2815C66.1541 42.7727 67.6447 40.4638 68.241 37.3541C68.2873 36.9432 68.1955 35.9373 67.9656 34.338C67.8275 33.4694 67.2517 32.5539 66.2404 31.594C65.4126 30.7706 64.5841 30.1538 63.7564 29.7421C62.5136 29.1027 61.824 28.7604 61.6859 28.7136C58.3272 27.8457 55.5882 27.3194 53.473 27.1369C52.6445 27.0909 51.5862 27.0909 50.2987 27.1369H47.0545H46.1569H45.1911C44.61 27.1695 44.0314 27.2018 43.4556 27.2339C42.3912 27.2933 41.3362 27.3522 40.2915 27.4114C38.221 27.5946 36.6793 28.075 35.6672 28.8516C35.3918 29.0809 35.2538 29.4006 35.2538 29.8115C35.2538 30.0868 35.2765 30.3846 35.3228 30.7036C36.0132 31.4818 36.9327 31.8693 38.0837 31.8693C38.6808 31.8693 39.6128 31.7328 40.8783 31.4584C42.1431 31.1847 43.0744 31.0248 43.673 30.9788C43.9484 31.1621 44.0864 31.4131 44.0864 31.7321C44.4544 41.3169 44.6388 45.6984 44.6388 44.8757V49.463C44.6388 49.5083 44.6843 49.6806 44.7769 49.9761C44.8687 50.2732 44.915 50.5578 44.915 50.8323V55.0079C44.8694 56.7889 44.9385 57.9975 45.1221 58.6361C45.1676 59.0019 45.1911 60.028 45.1911 61.717C45.1911 61.809 45.2256 61.9462 45.2947 62.1287C45.3645 62.3112 45.399 62.4242 45.399 62.4695C45.49 63.2001 45.5371 63.749 45.5371 64.1132C45.4908 65.6205 45.5136 66.7605 45.6062 67.5363C43.7185 67.8108 42.2003 67.9465 41.0509 67.9465C39.3939 67.9465 38.1065 68.1328 37.1862 68.5056C36.7727 68.6444 36.4031 69.0397 36.0823 69.6916C35.759 70.2031 35.8751 70.6686 36.4267 71.0874C37.07 71.6449 38.1284 71.9248 39.6018 71.9248C40.5214 71.9248 42.0748 71.7634 44.2598 71.4445C46.4449 71.1256 48.0211 70.9423 48.9869 70.8955C49.1712 70.8955 50.0915 70.8043 51.7478 70.6211C52.8964 70.4838 53.841 70.462 54.5769 70.5524C55.8636 70.6897 57.0271 70.6445 58.062 70.4152C59.0976 70.1867 59.6147 69.5013 59.6147 68.3574C59.6147 67.7632 59.4774 67.3055 59.2035 66.985C58.7461 66.3909 57.8784 66.1616 56.5988 66.2989C55.8668 66.4361 55.3184 66.5507 54.9527 66.6419C53.1694 66.8244 51.8435 66.939 50.9758 66.9843C50.3355 67.0763 49.9927 67.0763 49.9472 66.9843C49.4898 65.247 49.2379 62.9833 49.1924 60.1941C49.1469 56.0341 49.0551 53.2223 48.9178 51.7579V48.192C49.8342 47.8715 52.3087 47.3686 56.3446 46.6824C59.6445 46.1335 62.1206 45.3342 63.7713 44.2815ZM49.471 30.4954C58.3962 30.5421 63.2715 32.5181 64.1008 36.4231C64.2389 37.0212 64.1699 37.8009 63.8945 38.7655C63.39 41.0174 61.7871 42.4647 59.0859 43.1072C56.8412 43.5213 54.6201 43.9119 52.4209 44.2792C51.7792 44.4172 51.2762 44.4858 50.9106 44.4858C49.7189 44.6246 49.0771 44.6932 48.9869 44.6932C48.8041 40.8342 48.6887 37.9397 48.6432 36.009C48.5051 33.0686 48.4361 31.3687 48.4361 30.9086C48.8951 30.6342 49.2403 30.4954 49.471 30.4954Z" fill="black"/>
</svg>
