<svg width="100" height="100" viewBox="0 0 100 100" fill="none" xmlns="http://www.w3.org/2000/svg">
<path fill-rule="evenodd" clip-rule="evenodd" d="M24 5C13.5066 5 5 13.5066 5 24V75C5 85.4934 13.5066 94 24 94H76C86.4934 94 95 85.4934 95 75V24C95 13.5066 86.4934 5 76 5H24ZM27 8C16.5066 8 8 16.5066 8 27V72C8 82.4934 16.5066 91 27 91H73C83.4934 91 92 82.4934 92 72V27C92 16.5066 83.4934 8 73 8H27Z" fill="black"/>
<path d="M53.2684 61.4378C57.7748 59.7801 60.1273 56.5873 60.1273 51.0924C60.1273 45.5975 55.4527 40.7555 49.6118 40.7461C43.4481 40.7362 38.7983 45.5774 38.8727 51.0924C38.947 56.6074 41.6022 60.2762 45.852 61.6029L38.3237 79.9484C28.2478 77.3647 18 65.5904 18 51.0924C18 33.9205 31.9295 20 49.3882 20C66.8469 20 81 33.9205 81 51.0924C81 65.816 70.8495 77.426 60.5585 80L53.2684 61.4378Z" stroke="black" stroke-width="2" stroke-linecap="round" stroke-linejoin="round"/>
</svg>
