<svg width="100" height="100" viewBox="0 0 100 100" fill="none" xmlns="http://www.w3.org/2000/svg">
<path fill-rule="evenodd" clip-rule="evenodd" d="M24 5C13.5066 5 5 13.5066 5 24V75C5 85.4934 13.5066 94 24 94H76C86.4934 94 95 85.4934 95 75V24C95 13.5066 86.4934 5 76 5H24ZM27 8C16.5066 8 8 16.5066 8 27V72C8 82.4934 16.5066 91 27 91H73C83.4934 91 92 82.4934 92 72V27C92 16.5066 83.4934 8 73 8H27Z" fill="black"/>
<path d="M59.6 23C61.1826 23.0225 62.6922 23.6695 63.8 24.8L75.2 36.2C76.3305 37.3078 76.9775 38.8174 77 40.4V71C77 72.5913 76.3679 74.1174 75.2426 75.2426C74.1174 76.3679 72.5913 77 71 77H29C27.4087 77 25.8826 76.3679 24.7574 75.2426C23.6321 74.1174 23 72.5913 23 71V29C23 27.4087 23.6321 25.8826 24.7574 24.7574C25.8826 23.6321 27.4087 23 29 23H59.6Z" stroke="black" stroke-width="2" stroke-linecap="round" stroke-linejoin="round"/>
<path d="M65 77V56C65 55.2044 64.6839 54.4413 64.1213 53.8787C63.5587 53.3161 62.7956 53 62 53H38C37.2044 53 36.4413 53.3161 35.8787 53.8787C35.3161 54.4413 35 55.2044 35 56V77" stroke="black" stroke-width="2" stroke-linecap="round" stroke-linejoin="round"/>
<path d="M35 23V35C35 35.7956 35.3161 36.5587 35.8787 37.1213C36.4413 37.6839 37.2044 38 38 38H59" stroke="black" stroke-width="2" stroke-linecap="round" stroke-linejoin="round"/>
</svg>
