<svg width="100" height="100" viewBox="0 0 100 100" fill="none" xmlns="http://www.w3.org/2000/svg">
<path fill-rule="evenodd" clip-rule="evenodd" d="M24 5C13.5066 5 5 13.5066 5 24V75C5 85.4934 13.5066 94 24 94H76C86.4934 94 95 85.4934 95 75V24C95 13.5066 86.4934 5 76 5H24ZM27 8C16.5066 8 8 16.5066 8 27V72C8 82.4934 16.5066 91 27 91H73C83.4934 91 92 82.4934 92 72V27C92 16.5066 83.4934 8 73 8H27Z" fill="black"/>
<path d="M33.5 53.4167V46.25" stroke="black" stroke-width="2" stroke-linecap="round" stroke-linejoin="round"/>
<path d="M24.5418 35.5002C21.8543 35.5002 16.4793 38.1877 15.5835 40.8752C21.8543 43.5627 26.3335 42.6668 26.3335 42.6668C23.646 45.3543 22.7502 48.9377 22.7502 51.6252C27.2293 51.6252 30.8127 48.9377 33.5002 46.2502C36.1877 48.9377 39.771 51.6252 44.2502 51.6252C44.2502 48.9377 43.3543 45.3543 40.6668 42.6668C40.6668 42.6668 45.146 43.5627 51.4168 40.8752C50.521 38.1877 45.146 35.5002 42.4585 35.5002C45.146 33.7085 49.6252 28.3335 49.6252 24.7502C45.146 24.7502 39.771 27.4377 37.0835 30.1252C37.0835 25.646 36.1877 21.1668 33.5002 17.5835C30.8127 21.1668 29.9168 25.646 29.9168 30.1252C27.2293 27.4377 21.8543 24.7502 17.3752 24.7502C17.3752 28.3335 21.8543 33.7085 24.5418 35.5002Z" stroke="black" stroke-width="2" stroke-linecap="round" stroke-linejoin="round"/>
<path d="M74.9998 26.8335H70.3332C70.0238 26.8335 69.727 26.9564 69.5082 27.1752C69.2894 27.394 69.1665 27.6907 69.1665 28.0002V33.8335C69.1665 34.1429 69.2894 34.4397 69.5082 34.6585C69.727 34.8772 70.0238 35.0002 70.3332 35.0002H74.9998" stroke="black" stroke-width="2" stroke-linecap="round" stroke-linejoin="round"/>
<path d="M61 22.1665V37.3332C61 37.952 61.2458 38.5455 61.6834 38.9831C62.121 39.4207 62.7145 39.6665 63.3333 39.6665H72.6667C73.2855 39.6665 73.879 39.4207 74.3166 38.9831C74.7542 38.5455 75 37.952 75 37.3332V22.1665" stroke="black" stroke-width="2" stroke-linecap="round" stroke-linejoin="round"/>
<path d="M76.1665 16.3335H59.8332C59.1888 16.3335 58.6665 16.8558 58.6665 17.5002V21.0002C58.6665 21.6445 59.1888 22.1668 59.8332 22.1668H76.1665C76.8108 22.1668 77.3332 21.6445 77.3332 21.0002V17.5002C77.3332 16.8558 76.8108 16.3335 76.1665 16.3335Z" stroke="black" stroke-width="2" stroke-linecap="round" stroke-linejoin="round"/>
<path d="M61.6665 80.8335H74.3332" stroke="black" stroke-width="2" stroke-linecap="round" stroke-linejoin="round"/>
<path d="M60.0835 61.8335H75.9168" stroke="black" stroke-width="2" stroke-linecap="round" stroke-linejoin="round"/>
<path d="M68 69.75V80.8333" stroke="black" stroke-width="2" stroke-linecap="round" stroke-linejoin="round"/>
<path d="M68.0002 69.7498C70.0998 69.7498 72.1134 68.9158 73.5981 67.4311C75.0828 65.9464 75.9168 63.9328 75.9168 61.8332C75.9168 58.6665 75.1252 55.4998 72.7502 49.1665H63.2502C60.8752 55.4998 60.0835 58.6665 60.0835 61.8332C60.0835 63.9328 60.9176 65.9464 62.4022 67.4311C63.8869 68.9158 65.9005 69.7498 68.0002 69.7498Z" stroke="black" stroke-width="2" stroke-linecap="round" stroke-linejoin="round"/>
<path d="M44.4465 78.0001L35.4465 61.6668C35.2502 61.3077 34.9657 61.009 34.6218 60.8012C34.2779 60.5934 33.887 60.4839 33.489 60.4839C33.091 60.4839 32.7001 60.5934 32.3562 60.8012C32.0123 61.009 31.7277 61.3077 31.5315 61.6668L22.5315 78.0001C22.3331 78.3564 22.2291 78.7607 22.23 79.172C22.2309 79.5834 22.3366 79.9872 22.5365 80.3426C22.7364 80.6979 23.0233 80.9921 23.3681 81.1954C23.713 81.3987 24.1036 81.5038 24.5002 81.5001H42.5002C42.895 81.4997 43.2827 81.3916 43.6244 81.1866C43.9661 80.9816 44.2498 80.687 44.4471 80.3324C44.6443 79.9778 44.748 79.5756 44.7479 79.1662C44.7478 78.7568 44.6439 78.3546 44.4465 78.0001Z" stroke="black" stroke-width="2" stroke-linecap="round" stroke-linejoin="round"/>
<path d="M33.5 67.5V72.1667" stroke="black" stroke-width="2" stroke-linecap="round" stroke-linejoin="round"/>
<path d="M33.5 76.8335H33.51" stroke="black" stroke-width="2" stroke-linecap="round" stroke-linejoin="round"/>
</svg>
