<svg width="24" height="24" viewBox="0 0 24 24" fill="none" xmlns="http://www.w3.org/2000/svg">
<path d="M3 10H6C6.53043 10 7.03914 10.2107 7.41421 10.5858C7.78929 10.9609 8 11.4696 8 12V15C8 15.5304 7.78929 16.0391 7.41421 16.4142C7.03914 16.7893 6.53043 17 6 17H5C4.46957 17 3.96086 16.7893 3.58579 16.4142C3.21071 16.0391 3 15.5304 3 15V10ZM3 10C3 8.8181 3.23279 7.64778 3.68508 6.55585C4.13738 5.46392 4.80031 4.47177 5.63604 3.63604C6.47177 2.80031 7.46392 2.13738 8.55585 1.68508C9.64778 1.23279 10.8181 1 12 1C13.1819 1 14.3522 1.23279 15.4442 1.68508C16.5361 2.13738 17.5282 2.80031 18.364 3.63604C19.1997 4.47177 19.8626 5.46392 20.3149 6.55585C20.7672 7.64778 21 8.8181 21 10M21 10V15C21 15.5304 20.7893 16.0391 20.4142 16.4142C20.0391 16.7893 19.5304 17 19 17H18C17.4696 17 16.9609 16.7893 16.5858 16.4142C16.2107 16.0391 16 15.5304 16 15V12C16 11.4696 16.2107 10.9609 16.5858 10.5858C16.9609 10.2107 17.4696 10 18 10H21Z" stroke="white" stroke-width="2" stroke-linecap="round" stroke-linejoin="round"/>
<path d="M21 15V19C21 20.0609 20.5786 21.0783 19.8284 21.8284C19.0783 22.5786 18.0609 23 17 23H12" stroke="white" stroke-width="2" stroke-linecap="round" stroke-linejoin="round"/>
</svg>
